<svg width="560" height="92" viewBox="0 0 560 92" fill="none" xmlns="http://www.w3.org/2000/svg">
<path fill-rule="evenodd" clip-rule="evenodd" d="M0 0H73.3349V49.037H48.8899V73.5554H0V0ZM88.0021 63.7482H63.5571V88.2667H88.0021V63.7482Z" fill="black"/>
<path d="M127.725 19.6147H160.783C163.514 19.6147 165.815 19.7392 167.687 19.9883C169.578 20.2181 171.134 20.5725 172.356 21.0514C173.578 21.5303 174.514 22.1241 175.164 22.8328C175.832 23.5415 176.319 24.3748 176.624 25.3325C176.93 26.2903 177.102 27.363 177.14 28.5506C177.197 29.7382 177.226 31.0503 177.226 32.487C177.226 33.9811 177.188 35.3602 177.112 36.6245C177.054 37.8887 176.834 39.038 176.453 40.0724C176.09 41.0876 175.498 41.9879 174.677 42.7732C173.874 43.5394 172.719 44.1811 171.21 44.6983C169.721 45.2155 167.82 45.6082 165.509 45.8763C163.218 46.1445 160.392 46.2786 157.03 46.2786H133.225V63.7482H127.725V19.6147ZM133.225 41.6814H157.03C159.475 41.6814 161.528 41.6431 163.189 41.5665C164.87 41.4707 166.254 41.3079 167.343 41.078C168.432 40.8482 169.272 40.5225 169.864 40.1011C170.456 39.6797 170.885 39.1242 171.153 38.4346C171.44 37.745 171.602 36.9214 171.64 35.9636C171.697 34.9867 171.726 33.8278 171.726 32.487C171.726 31.2419 171.697 30.1692 171.64 29.2689C171.602 28.3686 171.44 27.612 171.153 26.9991C170.885 26.3861 170.456 25.8976 169.864 25.5337C169.272 25.1697 168.432 24.892 167.343 24.7004C166.254 24.4897 164.87 24.3557 163.189 24.2982C161.528 24.2407 159.475 24.212 157.03 24.212H133.225V41.6814Z" fill="black"/>
<path d="M184.56 63.7482V19.6147H228.561V24.212H190.06V38.9231H226.727V43.5203H190.06V59.1506H228.561V63.7482H184.56Z" fill="black"/>
<path d="M241.394 63.7482H235.894V19.6147H245.548L285.882 58.2316V19.6147H291.382V63.7482H284.049L241.394 24.212V63.7482Z" fill="black"/>
<path d="M343.662 19.6147H351.912L320.745 41.2217L352.829 63.7482H344.579L315.245 43.5203H307.911V63.7482H302.411V19.6147H307.911V38.9231H315.245L343.662 19.6147Z" fill="black"/>
<path d="M395.025 18.6953C398.386 18.6953 401.213 18.906 403.505 19.3274C405.815 19.7297 407.715 20.3522 409.205 21.195C410.695 22.0187 411.84 23.0626 412.643 24.3269C413.445 25.5911 414.027 27.0756 414.39 28.7804C414.772 30.4853 414.992 32.4103 415.049 34.5557C415.125 36.7011 415.164 39.0763 415.164 41.6814C415.164 44.2865 415.125 46.6617 415.049 48.8069C414.992 50.9524 414.772 52.8777 414.39 54.5821C414.027 56.287 413.445 57.7716 412.643 59.0359C411.84 60.3001 410.695 61.3538 409.205 62.1963C407.715 63.0199 405.815 63.6329 403.505 64.0353C401.213 64.4566 398.386 64.6672 395.025 64.6672H378.467C375.106 64.6672 372.27 64.4566 369.959 64.0353C367.668 63.6329 365.777 63.0199 364.287 62.1963C362.798 61.3538 361.642 60.3001 360.821 59.0359C360.019 57.7716 359.427 56.287 359.045 54.5821C358.682 52.8777 358.472 50.9524 358.415 48.8069C358.358 46.6617 358.329 44.2865 358.329 41.6814C358.329 39.0763 358.358 36.7011 358.415 34.5557C358.472 32.4103 358.682 30.4853 359.045 28.7804C359.427 27.0756 360.019 25.5911 360.821 24.3269C361.642 23.0626 362.798 22.0187 364.287 21.195C365.777 20.3522 367.668 19.7297 369.959 19.3274C372.27 18.906 375.106 18.6953 378.467 18.6953H395.025ZM395.025 60.0701C397.45 60.0701 399.494 60.0033 401.156 59.8692C402.836 59.7157 404.221 59.4189 405.309 58.9782C406.398 58.5376 407.238 57.9057 407.83 57.0821C408.422 56.2584 408.852 55.1665 409.119 53.8064C409.387 52.4467 409.539 50.7801 409.577 48.8069C409.635 46.8149 409.663 44.4397 409.663 41.6814C409.663 38.9231 409.635 36.5574 409.577 34.5844C409.539 32.5923 409.387 30.9163 409.119 29.5562C408.852 28.1962 408.422 27.1044 407.83 26.2807C407.238 25.457 406.398 24.8249 405.309 24.3844C404.24 23.9438 402.865 23.6564 401.184 23.5224C399.522 23.3692 397.47 23.2925 395.025 23.2925H378.467C376.023 23.2925 373.96 23.3692 372.28 23.5224C370.618 23.6564 369.243 23.9438 368.155 24.3844C367.066 24.8249 366.226 25.457 365.634 26.2807C365.042 27.1044 364.612 28.1962 364.345 29.5562C364.077 30.9163 363.925 32.5923 363.887 34.5844C363.848 36.5574 363.829 38.9231 363.829 41.6814C363.829 44.4397 363.848 46.8149 363.887 48.8069C363.944 50.7801 364.106 52.4467 364.373 53.8064C364.641 55.1665 365.061 56.2584 365.634 57.0821C366.226 57.9057 367.066 58.5376 368.155 58.9782C369.243 59.4189 370.618 59.7157 372.28 59.8692C373.96 60.0033 376.023 60.0701 378.467 60.0701H395.025Z" fill="black"/>
<path d="M469.248 19.6147H475.665L451.831 63.7482H444.498L420.664 19.6147H427.081L448.164 60.0702L469.248 19.6147Z" fill="black"/>
<path d="M495.832 19.6147H501.33V63.7482H495.832V19.6147Z" fill="black"/>
<path d="M560 19.6147V24.212H538.001V63.7482H532.497V24.212H510.498V19.6147H560Z" fill="black"/>
</svg>
