<svg width="276" height="45" viewBox="0 0 276 45" fill="none" xmlns="http://www.w3.org/2000/svg">
<path fill-rule="evenodd" clip-rule="evenodd" d="M0 0H36.1436V23.9855H24.0958V35.9782H0V0ZM43.3724 31.1812H31.3246V43.1739H43.3724V31.1812Z" fill="#DFDDDD"/>
<path d="M62.9492 9.59375H79.242C80.588 9.59375 81.7222 9.65464 82.6447 9.77645C83.5767 9.88888 84.3437 10.0622 84.9459 10.2965C85.5484 10.5307 86.0097 10.8211 86.3298 11.1678C86.6591 11.5145 86.8991 11.922 87.0497 12.3905C87.2003 12.859 87.285 13.3836 87.3038 13.9646C87.3322 14.5455 87.3462 15.1873 87.3462 15.8899C87.3462 16.6208 87.3274 17.2953 87.2898 17.9137C87.2615 18.5321 87.1532 19.0942 86.965 19.6002C86.7861 20.0968 86.4944 20.5371 86.0897 20.9213C85.6942 21.296 85.1249 21.6099 84.3813 21.8629C83.6471 22.1159 82.7106 22.3079 81.5716 22.4391C80.4421 22.5703 79.0493 22.6359 77.3926 22.6359H65.66V31.1808H62.9492V9.59375ZM65.66 20.3872H77.3926C78.5975 20.3872 79.6092 20.3685 80.4281 20.331C81.2564 20.2842 81.9387 20.2045 82.4753 20.0921C83.0118 19.9797 83.426 19.8204 83.7177 19.6143C84.0094 19.4081 84.2212 19.1364 84.353 18.7991C84.4943 18.4618 84.5743 18.0589 84.5931 17.5905C84.6214 17.1126 84.6354 16.5458 84.6354 15.8899C84.6354 15.2809 84.6214 14.7562 84.5931 14.3159C84.5743 13.8755 84.4943 13.5055 84.353 13.2056C84.2212 12.9058 84.0094 12.6669 83.7177 12.4889C83.426 12.3109 83.0118 12.175 82.4753 12.0813C81.9387 11.9783 81.2564 11.9127 80.4281 11.8846C79.6092 11.8564 78.5975 11.8424 77.3926 11.8424H65.66V20.3872Z" fill="#DFDDDD"/>
<path d="M90.9609 31.1808V9.59375H112.647V11.8424H93.6717V19.038H111.743V21.2867H93.6717V28.932H112.647V31.1808H90.9609Z" fill="#DFDDDD"/>
<path d="M118.972 31.1808H116.262V9.59375H121.02L140.899 28.4824V9.59375H143.609V31.1808H139.995L118.972 11.8424V31.1808Z" fill="#DFDDDD"/>
<path d="M169.378 9.59375H173.444L158.083 20.1624L173.896 31.1808H169.829L155.372 21.2867H151.758V31.1808H149.047V9.59375H151.758V19.038H155.372L169.378 9.59375Z" fill="#DFDDDD"/>
<path d="M194.691 9.14453C196.348 9.14453 197.741 9.24758 198.871 9.4537C200.009 9.65047 200.946 9.95498 201.68 10.3672C202.414 10.7701 202.979 11.2807 203.374 11.8991C203.77 12.5175 204.057 13.2436 204.235 14.0775C204.424 14.9114 204.532 15.853 204.56 16.9023C204.598 17.9517 204.617 19.1135 204.617 20.3877C204.617 21.6619 204.598 22.8237 204.56 23.873C204.532 24.9225 204.424 25.8642 204.235 26.6978C204.057 27.5318 203.77 28.2579 203.374 28.8763C202.979 29.4947 202.414 30.0101 201.68 30.4222C200.946 30.8251 200.009 31.1249 198.871 31.3217C197.741 31.5278 196.348 31.6308 194.691 31.6308H186.531C184.874 31.6308 183.476 31.5278 182.337 31.3217C181.208 31.1249 180.276 30.8251 179.542 30.4222C178.808 30.0101 178.238 29.4947 177.834 28.8763C177.438 28.2579 177.147 27.5318 176.958 26.6978C176.78 25.8642 176.676 24.9225 176.648 23.873C176.62 22.8237 176.605 21.6619 176.605 20.3877C176.605 19.1135 176.62 17.9517 176.648 16.9023C176.676 15.853 176.78 14.9114 176.958 14.0775C177.147 13.2436 177.438 12.5175 177.834 11.8991C178.238 11.2807 178.808 10.7701 179.542 10.3672C180.276 9.95498 181.208 9.65047 182.337 9.4537C183.476 9.24758 184.874 9.14453 186.531 9.14453H194.691ZM194.691 29.3822C195.887 29.3822 196.894 29.3495 197.713 29.2839C198.541 29.2088 199.223 29.0637 199.76 28.8481C200.296 28.6326 200.71 28.3235 201.002 27.9207C201.294 27.5178 201.506 26.9837 201.638 26.3184C201.77 25.6534 201.845 24.8382 201.864 23.873C201.892 22.8987 201.906 21.7369 201.906 20.3877C201.906 19.0385 201.892 17.8814 201.864 16.9164C201.845 15.942 201.77 15.1222 201.638 14.4569C201.506 13.7917 201.294 13.2576 201.002 12.8548C200.71 12.4519 200.296 12.1427 199.76 11.9272C199.233 11.7117 198.555 11.5712 197.727 11.5056C196.908 11.4306 195.896 11.3932 194.691 11.3932H186.531C185.326 11.3932 184.309 11.4306 183.481 11.5056C182.662 11.5712 181.985 11.7117 181.448 11.9272C180.912 12.1427 180.498 12.4519 180.206 12.8548C179.914 13.2576 179.702 13.7917 179.57 14.4569C179.438 15.1222 179.363 15.942 179.345 16.9164C179.325 17.8814 179.316 19.0385 179.316 20.3877C179.316 21.7369 179.325 22.8987 179.345 23.873C179.373 24.8382 179.453 25.6534 179.584 26.3184C179.716 26.9837 179.923 27.5178 180.206 27.9207C180.498 28.3235 180.912 28.6326 181.448 28.8481C181.985 29.0637 182.662 29.2088 183.481 29.2839C184.309 29.3495 185.326 29.3822 186.531 29.3822H194.691Z" fill="#DFDDDD"/>
<path d="M231.273 9.59375H234.436L222.689 31.1808H219.075L207.328 9.59375H210.491L220.882 29.3817L231.273 9.59375Z" fill="#DFDDDD"/>
<path d="M244.375 9.59473H247.085V31.1817H244.375V9.59473Z" fill="#DFDDDD"/>
<path d="M275.999 9.59375V11.8424H265.156V31.1808H262.444V11.8424H251.602V9.59375H275.999Z" fill="#DFDDDD"/>
</svg>
