<svg width="32" height="33" viewBox="0 0 32 33" fill="none" xmlns="http://www.w3.org/2000/svg">
<path fill-rule="evenodd" clip-rule="evenodd" d="M3.33325 16.5C3.33325 16.1319 3.63173 15.8334 3.99992 15.8334H27.9999C28.3681 15.8334 28.6666 16.1319 28.6666 16.5C28.6666 16.8682 28.3681 17.1667 27.9999 17.1667H3.99992C3.63173 17.1667 3.33325 16.8682 3.33325 16.5Z" fill="black"/>
<path fill-rule="evenodd" clip-rule="evenodd" d="M3.33325 8.50004C3.33325 8.13185 3.63173 7.83337 3.99992 7.83337H27.9999C28.3681 7.83337 28.6666 8.13185 28.6666 8.50004C28.6666 8.86823 28.3681 9.16671 27.9999 9.16671H3.99992C3.63173 9.16671 3.33325 8.86823 3.33325 8.50004Z" fill="black"/>
<path fill-rule="evenodd" clip-rule="evenodd" d="M3.33325 24.5C3.33325 24.1319 3.63173 23.8334 3.99992 23.8334H27.9999C28.3681 23.8334 28.6666 24.1319 28.6666 24.5C28.6666 24.8682 28.3681 25.1667 27.9999 25.1667H3.99992C3.63173 25.1667 3.33325 24.8682 3.33325 24.5Z" fill="black"/>
</svg>
